<svg xmlns="http://www.w3.org/2000/svg" xmlns:xlink="http://www.w3.org/1999/xlink" width="1153.75" height="447.589" viewBox="0 0 1153.75 447.589">
  <defs>
    <linearGradient id="linear-gradient" x1="0.5" x2="0.5" y2="1" gradientUnits="objectBoundingBox">
      <stop offset="0" stop-color="#00b6e5"/>
      <stop offset="1" stop-color="#0036e8"/>
    </linearGradient>
  </defs>
  <g id="Group_294" data-name="Group 294" transform="translate(-358.447 -1904.619)">
    <path id="Path_527" data-name="Path 527" d="M264.845,261.323H49.727q7.028,38.807,31.932,56.682T135.9,335.881q45.224,0,75.78-37.585l38.807,29.334q-43.7,56.53-117.031,56.53-56.224,0-94.114-38.5T1.447,250.017q0-53.474,38.348-92.739t93.656-39.265q54.391,0,93.2,39.876T264.845,261.323ZM55.227,218.849h154Q183.564,166.9,133.451,166.9,78.755,166.9,55.227,218.849ZM645.884,1.287v60.2Q582.938,30.621,530.075,30.621q-67.835,0-114.281,43.806t-46.446,107.6q0,65.019,47.515,108.519t119.018,43.5q51.946,0,110-32.7v60.807Q593.022,390.271,531.3,390.271q-90.447,0-154.616-61.22T312.513,181.417q0-84.885,63.1-145.342T527.631-24.381Q584.771-24.381,645.884,1.287ZM692.941,180.2q0-84.274,63.558-144.425T909.282-24.381q87.086,0,150.033,60.609T1122.26,180.2q0,88.246-62.183,149.161t-152.63,60.915q-89.225,0-151.866-61.373T692.941,180.2Zm372.79,2.445q0-64.412-46.446-108.521T905,30.01q-64.474,0-110.462,44.873T748.554,182.64q0,63.8,47.21,107.91t115.656,44.109q62.946,0,108.628-45.026T1065.731,182.64Z" transform="translate(389.937 1961.937)" opacity="0.24" fill="url(#linear-gradient)"/>
    <path id="Path_526" data-name="Path 526" d="M264.845,261.323H49.727q7.028,38.807,31.932,56.682T135.9,335.881q45.224,0,75.78-37.585l38.807,29.334q-43.7,56.53-117.031,56.53-56.224,0-94.114-38.5T1.447,250.017q0-53.474,38.348-92.739t93.656-39.265q54.391,0,93.2,39.876T264.845,261.323ZM55.227,218.849h154Q183.564,166.9,133.451,166.9,78.755,166.9,55.227,218.849ZM645.884,1.287v60.2Q582.938,30.621,530.075,30.621q-67.835,0-114.281,43.806t-46.446,107.6q0,65.019,47.515,108.519t119.018,43.5q51.946,0,110-32.7v60.807Q593.022,390.271,531.3,390.271q-90.447,0-154.616-61.22T312.513,181.417q0-84.885,63.1-145.342T527.631-24.381Q584.771-24.381,645.884,1.287ZM692.941,180.2q0-84.274,63.558-144.425T909.282-24.381q87.086,0,150.033,60.609T1122.26,180.2q0,88.246-62.183,149.161t-152.63,60.915q-89.225,0-151.866-61.373T692.941,180.2Zm372.79,2.445q0-64.412-46.446-108.521T905,30.01q-64.474,0-110.462,44.873T748.554,182.64q0,63.8,47.21,107.91t115.656,44.109q62.946,0,108.628-45.026T1065.731,182.64Z" transform="translate(357 1929)" fill="url(#linear-gradient)"/>
  </g>
</svg>
